name Visual3d_SIMM_grf.mot
datacolumns 19
datarows 52
range 2.030000 2.540000
endheader
time	ground_force_vx	ground_force_vy	ground_force_vz	ground_force_px	ground_force_py	ground_force_pz	l_ground_force_vx	l_ground_force_vy	l_ground_force_vz	l_ground_force_px	l_ground_force_py	l_ground_force_pz	ground_torque_x	ground_torque_y	ground_torque_z	l_ground_torque_x	l_ground_torque_y	l_ground_torque_z
2.030000	0.239971	77.326172	-43.811806	0.287233	-0.002962	0.146357	10.909765	159.359848	34.795258	0.241395	-0.008460	-0.242821	0.001877	0.565032	-0.010621	-0.003067	0.332816	0.007119
2.040000	0.666565	62.338787	-38.536221	0.288849	-0.003825	0.140599	10.042610	187.863663	39.884071	0.243944	-0.008425	-0.243892	0.001789	0.538555	-0.010124	-0.002401	0.260543	0.005573
2.050000	0.924955	47.277840	-32.207314	0.289854	-0.004227	0.133465	8.449150	212.357803	45.159546	0.245306	-0.008699	-0.246094	0.001656	0.498314	-0.009367	-0.001616	0.175335	0.003750
2.060000	1.034461	33.225372	-25.583649	0.290681	-0.004302	0.122676	6.737467	233.090179	49.804413	0.245812	-0.009037	-0.248491	0.001499	0.451154	-0.008481	-0.000941	0.102138	0.002185
2.070000	1.033916	20.911169	-19.384212	0.292165	-0.004262	0.102898	5.446359	250.536285	53.300583	0.245855	-0.009279	-0.250584	0.001343	0.404266	-0.007599	-0.000571	0.061955	0.001325
2.080000	0.000000	0.000000	0.000000	0.000000	0.000000	0.000000	4.882065	264.957581	55.483997	0.245742	-0.009358	-0.252207	0.000000	0.000000	0.000000	-0.000583	0.063229	0.001352
2.090000	0.000000	0.000000	0.000000	0.000000	0.000000	0.000000	5.061179	276.456848	56.389980	0.245675	-0.009278	-0.253368	0.000000	0.000000	0.000000	-0.000934	0.101365	0.002168
2.100000	0.000000	0.000000	0.000000	0.000000	0.000000	0.000000	5.759046	285.126038	56.196625	0.245744	-0.009082	-0.254158	0.000000	0.000000	0.000000	-0.001490	0.161714	0.003459
2.110000	0.000000	0.000000	0.000000	0.000000	0.000000	0.000000	6.639442	291.055206	55.111557	0.245959	-0.008822	-0.254689	0.000000	0.000000	0.000000	-0.002078	0.225503	0.004824
2.120000	0.000000	0.000000	0.000000	0.000000	0.000000	0.000000	7.410089	294.301971	53.280998	0.246281	-0.008541	-0.255048	0.000000	0.000000	0.000000	-0.002562	0.278024	0.005947
2.130000	0.000000	0.000000	0.000000	0.000000	0.000000	0.000000	7.922818	294.965485	50.819611	0.246665	-0.008269	-0.255295	0.000000	0.000000	0.000000	-0.002899	0.314526	0.006728
2.140000	0.000000	0.000000	0.000000	0.000000	0.000000	0.000000	8.185339	293.244659	47.849510	0.247074	-0.008026	-0.255466	0.000000	0.000000	0.000000	-0.003121	0.338632	0.007243
2.150000	0.000000	0.000000	0.000000	0.000000	0.000000	0.000000	8.297467	289.450439	44.492668	0.247490	-0.007821	-0.255571	0.000000	0.000000	0.000000	-0.003301	0.358216	0.007662
2.160000	0.000000	0.000000	0.000000	0.000000	0.000000	0.000000	8.366581	283.974518	40.881077	0.247914	-0.007661	-0.255605	0.000000	0.000000	0.000000	-0.003502	0.380027	0.008129
2.170000	0.000000	0.000000	0.000000	0.000000	0.000000	0.000000	8.443432	277.204895	37.151371	0.248358	-0.007548	-0.255561	0.000000	0.000000	0.000000	-0.003753	0.407215	0.008710
2.180000	0.000000	0.000000	0.000000	0.000000	0.000000	0.000000	8.505560	269.468597	33.427589	0.248845	-0.007482	-0.255442	0.000000	0.000000	0.000000	-0.004040	0.438398	0.009377
2.190000	0.000000	0.000000	0.000000	0.000000	0.000000	0.000000	8.478107	261.048279	29.808266	0.249388	-0.007460	-0.255252	0.000000	0.000000	0.000000	-0.004321	0.468868	0.010029
2.200000	0.000000	0.000000	0.000000	0.000000	0.000000	0.000000	8.283880	252.197067	26.361904	0.249998	-0.007475	-0.255004	0.000000	0.000000	0.000000	-0.004547	0.493410	0.010554
2.210000	0.000000	0.000000	0.000000	0.000000	0.000000	0.000000	7.879010	243.141479	23.122129	0.250677	-0.007517	-0.254709	0.000000	0.000000	0.000000	-0.004687	0.508524	0.010877
2.220000	0.000000	0.000000	0.000000	0.000000	0.000000	0.000000	7.271855	234.096939	20.085108	0.251411	-0.007573	-0.254386	0.000000	0.000000	0.000000	-0.004735	0.513746	0.010989
2.230000	0.000000	0.000000	0.000000	0.000000	0.000000	0.000000	6.522076	225.285492	17.220140	0.252182	-0.007628	-0.254035	0.000000	0.000000	0.000000	-0.004708	0.510893	0.010928
2.240000	0.000000	0.000000	0.000000	0.000000	0.000000	0.000000	5.716550	216.899597	14.481832	0.252962	-0.007670	-0.253651	0.000000	0.000000	0.000000	-0.004627	0.502098	0.010740
2.250000	0.000000	0.000000	0.000000	0.000000	0.000000	0.000000	4.945640	209.086121	11.826669	0.253725	-0.007685	-0.253213	0.000000	0.000000	0.000000	-0.004511	0.489523	0.010471
2.260000	0.000000	0.000000	0.000000	0.000000	0.000000	0.000000	4.280015	201.933258	9.229495	0.254447	-0.007668	-0.252710	0.000000	0.000000	0.000000	-0.004386	0.475930	0.010180
2.270000	0.000000	0.000000	0.000000	0.000000	0.000000	0.000000	3.761564	195.471313	6.697702	0.255106	-0.007622	-0.252151	0.000000	0.000000	0.000000	-0.004274	0.463793	0.009921
2.280000	0.000000	0.000000	0.000000	0.000000	0.000000	0.000000	3.404028	189.663696	4.264548	0.255703	-0.007553	-0.251563	0.000000	0.000000	0.000000	-0.004192	0.454882	0.009730
2.290000	0.000000	0.000000	0.000000	0.000000	0.000000	0.000000	3.202131	184.434692	1.974565	0.256256	-0.007468	-0.250979	0.000000	0.000000	0.000000	-0.004135	0.448637	0.009596
2.300000	0.000000	0.000000	0.000000	0.000000	0.000000	0.000000	3.137074	179.704666	-0.134731	0.256784	-0.007374	-0.250420	0.000000	0.000000	0.000000	-0.004080	0.442684	0.009469
2.310000	0.000000	0.000000	0.000000	0.000000	0.000000	0.000000	3.185582	175.410278	-2.044076	0.257306	-0.007279	-0.249893	0.000000	0.000000	0.000000	-0.004000	0.434064	0.009285
2.320000	0.000000	0.000000	0.000000	0.000000	0.000000	0.000000	3.328058	171.504684	-3.756609	0.257814	-0.007193	-0.249408	0.000000	0.000000	0.000000	-0.003877	0.420641	0.008998
2.330000	0.000000	0.000000	0.000000	0.000000	0.000000	0.000000	3.549133	167.974609	-5.303777	0.258299	-0.007127	-0.248966	0.000000	0.000000	0.000000	-0.003692	0.400587	0.008569
2.340000	0.000000	0.000000	0.000000	0.000000	0.000000	0.000000	3.836930	164.841156	-6.736727	0.258739	-0.007089	-0.248555	0.000000	0.000000	0.000000	-0.003433	0.372493	0.007968
2.350000	0.000000	0.000000	0.000000	0.000000	0.000000	0.000000	4.178285	162.140717	-8.122464	0.259087	-0.007082	-0.248140	0.000000	0.000000	0.000000	-0.003098	0.336107	0.007189
2.360000	0.000000	0.000000	0.000000	0.000000	0.000000	0.000000	4.561609	159.919586	-9.542464	0.259291	-0.007105	-0.247675	0.000000	0.000000	0.000000	-0.002703	0.293339	0.006275
2.370000	0.000000	0.000000	0.000000	0.000000	0.000000	0.000000	4.967838	158.227234	-11.082131	0.259323	-0.007154	-0.247114	0.000000	0.000000	0.000000	-0.002283	0.247745	0.005299
2.380000	0.000000	0.000000	0.000000	0.000000	0.000000	0.000000	5.375447	157.123886	-12.817363	0.259190	-0.007223	-0.246414	0.000000	0.000000	0.000000	-0.001872	0.203137	0.004345
2.390000	0.000000	0.000000	0.000000	0.000000	0.000000	0.000000	5.765246	156.677200	-14.802639	0.258917	-0.007295	-0.245554	0.000000	0.000000	0.000000	-0.001511	0.163974	0.003507
2.400000	0.000000	0.000000	0.000000	0.000000	0.000000	0.000000	6.134459	156.947906	-17.059217	0.258559	-0.007352	-0.244545	0.000000	0.000000	0.000000	-0.001243	0.134895	0.002885
2.410000	0.000000	0.000000	0.000000	0.000000	0.000000	0.000000	6.491708	157.950333	-19.576635	0.258178	-0.007375	-0.243436	0.000000	0.000000	0.000000	-0.001103	0.119714	0.002561
2.420000	0.000000	0.000000	0.000000	0.000000	0.000000	0.000000	6.847920	159.660110	-22.336561	0.257833	-0.007350	-0.242292	0.000000	0.000000	0.000000	-0.001097	0.119064	0.002547
2.430000	0.000000	0.000000	0.000000	0.000000	0.000000	0.000000	7.213135	162.029099	-25.329472	0.257541	-0.007269	-0.241168	0.000000	0.000000	0.000000	-0.001213	0.131608	0.002815
2.440000	0.000000	0.000000	0.000000	0.000000	0.000000	0.000000	7.597219	164.933975	-28.538820	0.257309	-0.007130	-0.240117	0.000000	0.000000	0.000000	-0.001432	0.155391	0.003324
2.450000	0.000000	0.000000	0.000000	0.000000	0.000000	0.000000	8.002461	168.067566	-31.910894	0.257146	-0.006934	-0.239203	0.000000	0.000000	0.000000	-0.001733	0.188089	0.004023
2.460000	0.000000	0.000000	0.000000	0.000000	0.000000	0.000000	8.418446	170.846375	-35.335106	0.257062	-0.006693	-0.238482	0.000000	0.000000	0.000000	-0.002082	0.225950	0.004833
2.470000	0.000000	0.000000	0.000000	0.000000	0.000000	0.000000	8.819534	172.470413	-38.635342	0.257067	-0.006422	-0.237983	0.000000	0.000000	0.000000	-0.002434	0.264075	0.005649
2.480000	0.000000	0.000000	0.000000	0.000000	0.000000	0.000000	9.164684	172.055511	-41.580917	0.257173	-0.006149	-0.237703	0.000000	0.000000	0.000000	-0.002752	0.298599	0.006387
2.490000	0.000000	0.000000	0.000000	0.000000	0.000000	0.000000	9.403562	168.744156	-43.887230	0.257383	-0.005911	-0.237608	0.000000	0.000000	0.000000	-0.003025	0.328195	0.007020
2.500000	0.000000	0.000000	0.000000	0.000000	0.000000	0.000000	9.483055	161.842575	-45.231594	0.257708	-0.005750	-0.237609	0.000000	0.000000	0.000000	-0.003261	0.353893	0.007570
2.510000	0.000000	0.000000	0.000000	0.000000	0.000000	0.000000	9.352792	150.974625	-45.308823	0.258166	-0.005719	-0.237536	0.000000	0.000000	0.000000	-0.003476	0.377198	0.008068
2.520000	0.000000	0.000000	0.000000	0.000000	0.000000	0.000000	8.968891	136.197433	-43.889721	0.258769	-0.005882	-0.237125	0.000000	0.000000	0.000000	-0.003668	0.397978	0.008513
2.530000	0.000000	0.000000	0.000000	0.000000	0.000000	0.000000	8.307992	118.067154	-40.858257	0.259513	-0.006318	-0.236016	0.000000	0.000000	0.000000	-0.003806	0.412962	0.008833
2.540000	0.000000	0.000000	0.000000	0.000000	0.000000	0.000000	7.391068	97.619598	-36.283989	0.260349	-0.007106	-0.233779	0.000000	0.000000	0.000000	-0.003862	0.419051	0.008964
